<?xml version="1.0" encoding="UTF-8" standalone="no"?>
<svg width="75px" height="65px" viewBox="0 0 75 65" version="1.1" xmlns="http://www.w3.org/2000/svg" xmlns:xlink="http://www.w3.org/1999/xlink">
    <!-- Generator: Sketch 44.1 (41455) - http://www.bohemiancoding.com/sketch -->
    <title>Shape</title>
    <desc>Created with Sketch.</desc>
    <defs>
        <path d="M55.1750967,78.8712191 C54.7830665,79.2632493 54.1447639,79.2605534 53.763951,78.8797405 L36.7013122,61.8171016 C36.3139882,61.4297776 36.3154251,60.8003644 36.7140568,60.4017326 L43.3322589,53.7835305 C43.7266216,53.3891678 44.3695592,53.3927171 44.7542611,53.777419 L53.7573178,62.7804757 C54.1483052,63.1714631 54.7831665,63.1705177 55.1754393,62.7782449 L76.2435081,41.7101761 C76.6357275,41.3179567 77.2691093,41.3154251 77.6677411,41.7140568 L84.2859432,48.3322589 C84.6803059,48.7266216 84.6777409,49.3685749 84.2901664,49.7561494 L55.1750967,78.8712191 Z" id="path-1"></path>
        <filter x="-48.0%" y="-55.7%" width="195.9%" height="221.8%" filterUnits="objectBoundingBox" id="filter-2">
            <feOffset dx="0" dy="2" in="SourceAlpha" result="shadowOffsetOuter1"></feOffset>
            <feGaussianBlur stdDeviation="7.5" in="shadowOffsetOuter1" result="shadowBlurOuter1"></feGaussianBlur>
            <feColorMatrix values="0 0 0 0 1   0 0 0 0 1   0 0 0 0 1  0 0 0 0.35 0" type="matrix" in="shadowBlurOuter1"></feColorMatrix>
        </filter>
    </defs>
    <g id="Page-1" stroke="none" stroke-width="1" fill="none" fill-rule="evenodd">
        <g id="checkout_succes" transform="translate(-123.000000, -177.000000)">
            <g id="Group-2" transform="translate(100.000000, 147.000000)">
                <circle id="Oval" stroke-opacity="0.25" stroke="#FFFFFF" stroke-width="2" cx="60" cy="60" r="59"></circle>
                <g id="Shape" fill-rule="nonzero">
                    <use fill="black" fill-opacity="1" filter="url(#filter-2)" xlink:href="#path-1"></use>
                    <use fill="#FFFFFF" fill-rule="evenodd" xlink:href="#path-1"></use>
                </g>
            </g>
        </g>
    </g>
</svg>