<?xml version="1.0" encoding="UTF-8" standalone="no"?>
<svg width="58px" height="16px" viewBox="0 0 58 16" version="1.1" xmlns="http://www.w3.org/2000/svg" xmlns:xlink="http://www.w3.org/1999/xlink">
    <!-- Generator: Sketch 44.1 (41455) - http://www.bohemiancoding.com/sketch -->
    <title>incart</title>
    <desc>Created with Sketch.</desc>
    <defs></defs>
    <g id="Page-1" stroke="none" stroke-width="1" fill="none" fill-rule="evenodd">
        <g id="login_options" transform="translate(-131.000000, -40.000000)" fill="#FFFFFF">
            <g id="Group-7" transform="translate(131.000000, 40.000000)">
                <g id="Group-6">
                    <path d="M3.22379986,5.24678837 L0.400270453,5.24678837 L0.400270453,15.729547 L3.22379986,15.729547 L3.22379986,5.24678837 Z M1.79580798,0 C0.778904665,0 0,0.800540906 0,1.81744422 C0,2.83434753 0.778904665,3.6132522 1.79580798,3.6132522 C2.81271129,3.6132522 3.60243408,2.83434753 3.60243408,1.81744422 C3.60243408,0.800540906 2.81271129,0 1.79580798,0 Z M10.8169176,4.96551724 C9.62692435,4.96551724 8.48020359,5.36578769 7.73375329,6.48005409 L7.73375329,5.24678837 L4.98595072,5.24678837 L4.98595072,15.729547 L7.80948013,15.729547 L7.80948013,9.98512508 C7.80948013,8.40567951 8.81556532,7.61595673 10.0271948,7.61595673 C11.3145511,7.61595673 12.0718195,8.44895199 12.0718195,9.96348884 L12.0718195,15.729547 L14.895349,15.729547 L14.895349,9.05476673 C14.895349,6.62068966 13.1969041,4.96551724 10.8169176,4.96551724 Z M22.1050232,4.96551724 C18.762224,4.96551724 16.5228731,7.31304936 16.5228731,10.4827586 C16.5228731,13.663286 18.762224,16 22.1050232,16 C23.8575587,16 25.328823,15.2968222 26.313272,14.0311021 L24.3011016,12.311021 C23.706105,12.9601082 22.9272003,13.3711968 22.0184782,13.3711968 C20.558032,13.3711968 19.4004931,12.2352941 19.4004931,10.4827586 C19.4004931,8.74104124 20.5688501,7.59432049 22.0292963,7.59432049 C22.9488366,7.59432049 23.6303781,7.96213658 24.2686472,8.64367816 L26.3024539,6.94523327 C25.3396412,5.67951318 23.8575587,4.96551724 22.1050232,4.96551724 Z M37.8501946,5.24678837 L37.8501946,15.729547 L35.0915739,15.729547 L35.0915739,14.5720081 C34.4100324,15.4158215 33.3931291,16 31.954319,16 C29.0658809,16 26.8806206,13.6308316 26.8806206,10.4827586 C26.8806206,7.3346856 29.0658809,4.96551724 31.954319,4.96551724 C33.3931291,4.96551724 34.3992142,5.54969574 35.0915739,6.40432725 L35.0915739,5.24678837 L37.8501946,5.24678837 Z M32.4735888,7.59432049 C30.8184164,7.59432049 29.7690587,8.88167681 29.7690587,10.4827586 C29.7690587,12.0838404 30.8184164,13.3711968 32.4735888,13.3711968 C34.0854888,13.3711968 35.1781189,12.137931 35.1781189,10.4827586 C35.1781189,8.82758621 34.0854888,7.59432049 32.4735888,7.59432049 Z M45.3026756,4.96551724 C44.0153192,4.96551724 43.0092341,5.40906018 42.3493287,6.39350913 L42.3493287,5.24678837 L39.6123443,5.24678837 L39.6123443,15.729547 L42.4358737,15.729547 L42.4358737,10.0175794 C42.4358737,8.45977011 43.3337777,7.65922921 44.6427702,7.65922921 C45.2161306,7.65922921 45.8868541,7.78904665 46.3520332,7.99459094 L46.7739399,5.19269777 C46.3844876,5.0520622 45.9084903,4.96551724 45.3026756,4.96551724 Z M56.3047025,5.24678837 L52.5075422,5.24678837 L52.5075422,2.13116971 L49.6840128,2.13116971 L49.6840128,5.24678837 L47.6610243,5.24678837 L47.6610243,7.75659229 L49.6840128,7.75659229 L49.6840128,11.8133874 C49.6840128,14.5287356 51.0146416,16 53.6109905,16 C55.1038911,16 56.1640669,15.5240027 57.0836071,14.8965517 L56.0450676,12.6896552 C55.4717072,13.035835 54.7468931,13.3711968 54.0761697,13.3711968 C53.1999019,13.3711968 52.5075422,12.8951995 52.5075422,11.5862069 L52.5075422,7.75659229 L56.3047025,7.75659229 L56.3047025,5.24678837 Z" id="incart"></path>
                </g>
            </g>
        </g>
    </g>
</svg>